<?xml version="1.0" encoding="utf-8"?>
<!-- Generator: Adobe Illustrator 24.3.0, SVG Export Plug-In . SVG Version: 6.00 Build 0)  -->
<svg version="1.1" id="Layer_1" xmlns="http://www.w3.org/2000/svg" xmlns:xlink="http://www.w3.org/1999/xlink" x="0px" y="0px"
	 width="237.6px" height="77.7px" viewBox="0 0 237.6 77.7" enable-background="new 0 0 237.6 77.7" xml:space="preserve">
<path fill="#231F20" d="M99.6,45.7c0,4,0.8,6.2,1.3,7h-9.8c-0.6-1.3-0.8-2.7-0.8-4.1c-3.5,2.9-8,4.5-12.5,4.5
	c-7.3,0-13.1-4.6-13.1-12.1s6-10.9,11.7-11.9l3.9-0.9c3.4-0.6,6.7-1.3,10-2.3v-1.1c0-3.8-3.3-4.9-7.3-4.9c-5.4,0-7.1,2.2-7.1,5.8
	h-9.3c0-9,6.6-13.3,16.4-12.9c8.3,0.3,16.6,1.7,16.6,12.6L99.6,45.7z M90.4,32.9C89,33.6,87.5,34,86,34.3l-5.1,1.1
	c-3.5,0.7-6.4,1.7-6.4,5.3c0,2.9,2.7,4.8,6,4.8c4.3,0,9.9-2.1,9.9-7.1L90.4,32.9z"/>
<path fill="#231F20" d="M132.8,25c-5.1-3.3-6.4-4.2-10.6-4.6s-7.1,1.4-7.1,3.7c0,6.7,24.2,1,24.2,15.5c0,9.3-8.3,13.4-17.1,13.4
	c-9,0-15.2-3.1-18.6-7l5.8-4.5c4.2,3.2,7.3,3.9,12.2,3.9c4.4,0,7.4-2.4,7.4-4.5c0-6.5-23.8-1.1-23.8-15.7c0-8.7,7.5-12.5,17-12.5
	c9.2,0,14.1,4.7,15.9,7L132.8,25z"/>
<path fill="#231F20" d="M177.2,45.7c0,4,1,6.1,1.5,6.9H169c-0.6-1.2-1-2.6-1-4c-3.5,2.9-8,4.5-12.5,4.5c-7.3,0-13.1-4.6-13.1-12.1
	s6-10.9,11.7-11.9l3.9-0.8c3.4-0.6,6.7-1.3,10-2.3v-1.2c0-3.8-3.3-4.9-7.3-4.9c-5.4,0-7.1,2.3-7.1,6h-9.3c0-9,6.8-13.4,16.4-13
	c8.3,0.3,16.6,1.7,16.6,12.6L177.2,45.7z M168,32.9c-1.4,0.7-2.9,1.1-4.4,1.4l-5.1,1.1c-3.5,0.7-6.4,1.7-6.4,5.3
	c0,2.9,2.7,4.8,6,4.8c4.3,0,9.9-2.1,9.9-7.1L168,32.9z"/>
<path fill="#231F20" d="M190.9,35.1c0.1,5.7,5,9.2,10,9.4c7.1,0.3,10.2-2.2,12.6-4.6l6.3,3.7c-2.9,4.4-8.4,9.4-18.9,9.4
	c-12.5,0-19.7-8.7-19.7-20.1s7.2-20.1,19.7-20.1c12.8,0,18.5,8.6,18.5,22.3L190.9,35.1z M209.6,28c-0.6-4.4-4.3-7.6-8.7-7.6
	c-4.7-0.2-8.9,3-10,7.6H209.6z"/>
<path fill="#231F20" d="M235.8,17.8c0,2.9-2.3,5.2-5.2,5.2s-5.2-2.3-5.2-5.2s2.3-5.2,5.2-5.2l0,0c2.8,0,5.2,2.2,5.2,5.1
	C235.8,17.8,235.8,17.8,235.8,17.8z M226.2,17.8c0,2.4,2,4.4,4.5,4.3c2.4,0,4.4-2,4.3-4.5c0-2.4-2-4.3-4.4-4.3
	c-2.4,0-4.4,1.9-4.4,4.3C226.2,17.7,226.2,17.8,226.2,17.8z M229.5,20.8h-0.7v-6h2.3c1.4,0,2,0.6,2,1.7c0,0.9-0.6,1.7-1.5,1.7
	l1.8,2.7h-0.9l-1.7-2.7h-1.3V20.8z M230.4,17.5c0.9,0,1.8,0,1.8-1.1c0-0.8-0.7-1-1.4-1h-1.4v2.1L230.4,17.5z"/>
<path fill="#F26322" d="M61.1,15.5H39.4C37.2,12,34.1,9.1,30.6,7l2.2-6.4l-3.4,5.8l0,0l-5.4,9.2L1,15.5l21.7,2.1l-2.1,3.9
	c-8.3-3.8-19.6-6-19.6-6c6.2,2.5,12.2,5.5,18,8.8L3.6,52.8l27.9-18c5.7,7,12.9,17.8,12.9,17.8C46.2,44,46,35.1,44,26.7L61.1,15.5z
	 M30.4,7.3c2,2.5,3.6,5.2,4.7,8.2h-7.5L30.4,7.3z M18.9,37.4L23.1,27c1.5,1,2.9,2,4.2,3.2c0.4,0.3,0.8,0.7,1.2,1.1L18.9,37.4z
	 M24.4,23.4l2.4-5.5l9.3,0.5c0.9,2.1,1.7,4.3,2.4,6.6l-6.2,3.4C29.7,26.6,27.1,24.9,24.4,23.4L24.4,23.4z M39.9,36.5
	c0,0-0.7-1.8-3.8-4.7l3.2-2.1C39.7,32,39.9,34.2,39.9,36.5z M41.9,20.6c-0.3-0.7-0.5-1.3-0.8-1.9L48,19l-5.4,3.4
	C42.5,21.7,42.3,21.1,41.9,20.6L41.9,20.6z"/>
<path fill="#231F20" d="M5.2,67.2H2.4l0.3-1.1h7l-0.2,1.1H6.6l-1.9,8.3H3.2L5.2,67.2z"/>
<path fill="#231F20" d="M10.9,66.2h0.8c0.4,0,0.5,0.1,0.4,0.9l-0.6,2.5c0.8-0.7,1.8-1.1,2.9-1.1c1.1,0,1.7,0.8,1.4,2.2l-1.1,4.9
	h-0.9c-0.4,0-0.5-0.1-0.4-0.7l1-4.2c0.2-0.8-0.1-1.2-0.7-1.2c-0.9,0.1-1.7,0.4-2.4,1l-1.1,5H8.7L10.9,66.2z"/>
<path fill="#231F20" d="M16.7,72.8c0-2.3,1.5-4.4,3.8-4.4c1.2-0.1,2.2,0.7,2.4,1.9c0,0.2,0,0.3,0,0.5c0,0.5-0.1,1-0.2,1.5h-4.6
	c0,0.2,0,0.3,0,0.5c0,1.2,0.5,1.8,1.7,1.8c0.7,0,1.4-0.2,1.9-0.6h0.5l-0.2,1c-0.7,0.4-1.5,0.6-2.3,0.6c-1.4,0.2-2.7-0.8-2.9-2.3
	C16.7,73.2,16.7,73,16.7,72.8z M18.3,71.4h3.3c0.1-0.2,0.1-0.5,0.1-0.7c0-0.9-0.5-1.4-1.2-1.4C19.3,69.4,18.6,70.2,18.3,71.4
	L18.3,71.4z"/>
<path fill="#231F20" d="M26.9,72c0-2.9,1.9-5.8,5.4-5.8c0.9-0.1,1.8,0.2,2.5,0.7l-0.2,1H34c-0.5-0.5-1.2-0.7-1.8-0.6
	c-2.6,0-3.8,2.7-3.8,4.8c0,1.8,0.9,2.6,2.4,2.6c0.8,0,1.6-0.2,2.2-0.7h0.6L33.4,75c-0.8,0.5-1.7,0.7-2.6,0.7
	C28.5,75.6,26.9,74.4,26.9,72z"/>
<path fill="#231F20" d="M34.9,72.8c0-2.3,1.5-4.4,3.8-4.4c1.2-0.1,2.2,0.7,2.4,1.9c0,0.2,0,0.3,0,0.5c0,0.5-0.1,1-0.2,1.5h-4.6
	c0,0.2,0,0.3,0,0.5c0,1.2,0.5,1.8,1.7,1.8c0.7,0,1.4-0.2,1.9-0.6h0.5l-0.2,1c-0.7,0.4-1.5,0.6-2.3,0.6c-1.4,0.2-2.7-0.9-2.9-2.3
	C34.9,73.2,34.9,73,34.9,72.8z M36.5,71.4h3.3c0.1-0.2,0.1-0.5,0.1-0.7c0-0.9-0.5-1.4-1.2-1.4C37.5,69.4,36.8,70.2,36.5,71.4
	L36.5,71.4z"/>
<path fill="#231F20" d="M43.2,68.5h0.4c0.7,0,0.8,0.4,0.7,1.1c0.8-0.7,1.8-1.1,2.9-1.2c1.1,0,1.7,0.8,1.4,2.2l-1.1,4.9h-0.9
	c-0.4,0-0.5-0.1-0.4-0.7l1-4.2c0.2-0.8-0.1-1.2-0.7-1.2c-0.9,0.1-1.7,0.4-2.4,1l-1.2,5h-1.4L43.2,68.5z"/>
<path fill="#231F20" d="M49.8,73.5l0.9-4h-0.9l0.2-1h0.8l0.4-1.9h1.4l-0.4,1.9h1.5l-0.2,1h-1.4l-0.9,4.1c-0.2,0.7,0.1,1.1,0.8,1.1
	h0.5l-0.2,0.8c-0.3,0.1-0.7,0.1-1,0.1C50,75.6,49.5,74.9,49.8,73.5z"/>
<path fill="#231F20" d="M53.9,72.8c0-2.3,1.5-4.4,3.8-4.4c1.2-0.1,2.2,0.7,2.4,1.9c0,0.2,0,0.3,0,0.5c0,0.5,0,1-0.2,1.5h-4.6
	c0,0.2,0,0.3,0,0.5c0,1.2,0.5,1.8,1.7,1.8c0.7,0,1.4-0.2,1.9-0.6h0.5l-0.2,1c-0.7,0.4-1.5,0.6-2.3,0.6c-1.4,0.2-2.7-0.8-2.9-2.2
	C53.9,73.2,53.8,73,53.9,72.8z M55.4,71.4h3.3c0.1-0.2,0.1-0.5,0.1-0.7c0-0.9-0.5-1.4-1.2-1.4C56.5,69.4,55.7,70.2,55.4,71.4
	L55.4,71.4z"/>
<path fill="#231F20" d="M62.1,68.5h0.4c0.7,0,0.8,0.5,0.7,1.2c0.5-0.7,1.3-1.2,2.2-1.2c0.1,0,0.2,0,0.4,0l-0.3,1.2h-0.2
	c-0.9,0-1.7,0.4-2.3,1.1l-1.1,4.8h-1.4L62.1,68.5z"/>
<path fill="#231F20" d="M70.1,69.5h-0.9l0.2-1h0.9l0.1-0.7c0.1-1.1,1.1-1.9,2.2-1.8c0.4,0,0.7,0,1,0.1L73.5,67H73
	c-0.6,0-1,0.2-1.2,0.9l-0.1,0.6h1.4l-0.2,1h-1.4l-1.4,6.1h-1.4L70.1,69.5z"/>
<path fill="#231F20" d="M73,72.8c0-2.5,1.7-4.3,3.8-4.3c1.5-0.2,2.8,0.9,3,2.4c0,0.2,0,0.3,0,0.5c0,2.5-1.6,4.3-3.8,4.3
	c-1.5,0.2-2.8-0.9-2.9-2.3C73,73.1,73,72.9,73,72.8z M78.4,71.3c0-1.3-0.6-1.9-1.6-1.9c-1.5,0-2.4,1.6-2.4,3.4
	c0,1.3,0.6,1.9,1.6,1.9C77.5,74.6,78.4,73,78.4,71.3L78.4,71.3z"/>
<path fill="#231F20" d="M81.9,68.5h0.4c0.7,0,0.8,0.5,0.7,1.2c0.5-0.7,1.3-1.2,2.2-1.2c0.1,0,0.2,0,0.4,0l-0.3,1.2h-0.2
	c-0.9,0-1.7,0.4-2.3,1.1l-1.1,4.8h-1.4L81.9,68.5z"/>
<path fill="#231F20" d="M87.8,75.1l5.1-9h1.6l1.2,9v0.4h-1.4L94,72.9h-3.6L89,75.6h-1.2V75.1z M91,71.8h2.8l-0.5-4.2l0,0L91,71.8z"
	/>
<path fill="#231F20" d="M96.7,74.9l0.2-1h0.5c0.4,0.5,1,0.7,1.7,0.7c1,0,1.5-0.4,1.5-1.1c0-0.5-0.4-0.7-1.1-1
	c-1.1-0.4-1.8-0.8-1.8-1.9c0-1.4,1-2.2,2.7-2.2c0.8,0,1.5,0.2,2.1,0.6l-0.2,0.9h-0.5c-0.4-0.4-1-0.6-1.5-0.6c-0.9,0-1.4,0.4-1.4,1
	c0,0.6,0.3,0.7,1.2,1c1.1,0.4,1.8,0.7,1.8,1.8c0,1.4-1,2.4-2.8,2.4C98.2,75.7,97.4,75.4,96.7,74.9z"/>
<path fill="#231F20" d="M102.6,74.9l0.2-1h0.5c0.4,0.5,1,0.7,1.7,0.7c1,0,1.5-0.4,1.5-1.1c0-0.5-0.4-0.7-1.1-1
	c-1.1-0.4-1.8-0.8-1.8-1.9c0-1.4,1-2.2,2.7-2.2c0.8,0,1.5,0.2,2.1,0.6l-0.2,0.9h-0.5c-0.4-0.4-1-0.6-1.5-0.6c-0.9,0-1.4,0.4-1.4,1
	c0,0.6,0.3,0.7,1.2,1c1.1,0.4,1.8,0.7,1.8,1.8c0,1.4-1,2.4-2.8,2.4C104.1,75.6,103.3,75.4,102.6,74.9z"/>
<path fill="#231F20" d="M109,72.8c0-2.5,1.7-4.3,3.8-4.3c1.5-0.1,2.8,1,2.9,2.5c0,0.1,0,0.3,0,0.4c0,2.5-1.6,4.3-3.8,4.3
	c-1.5,0.1-2.8-0.9-2.9-2.4C109,73.1,109,72.9,109,72.8z M114.3,71.3c0-1.3-0.6-1.9-1.6-1.9c-1.5,0-2.4,1.6-2.4,3.4
	c0,1.3,0.6,1.9,1.6,1.9C113.4,74.6,114.3,73,114.3,71.3L114.3,71.3z"/>
<path fill="#231F20" d="M116.7,72.8c-0.1-2.3,1.6-4.2,3.9-4.4c0.1,0,0.1,0,0.2,0c0.7,0,1.4,0.2,2,0.7l-0.2,0.9H122
	c-0.3-0.4-0.8-0.6-1.3-0.5c-1.7,0-2.7,1.5-2.7,3.3c0,1.2,0.5,1.8,1.6,1.8c0.6,0,1.2-0.2,1.7-0.5h0.5l-0.2,1
	c-0.6,0.4-1.4,0.6-2.1,0.6c-1.4,0.1-2.7-0.9-2.8-2.3C116.7,73.1,116.7,73,116.7,72.8z"/>
<path fill="#231F20" d="M124.6,68.5h0.7c0.5,0,0.7,0.1,0.5,1l-1.4,6H123L124.6,68.5z M124.8,67c0-0.4,0.4-0.8,0.8-0.8
	c0.4,0,0.8,0.3,0.8,0.7c0,0,0,0,0,0c0,0.4-0.4,0.8-0.8,0.8C125.1,67.8,124.8,67.4,124.8,67C124.8,67,124.8,67,124.8,67L124.8,67z"/>
<path fill="#231F20" d="M130,74.8c-0.5,0.5-1.2,0.8-1.9,0.8c-0.9,0.1-1.8-0.6-1.9-1.5c0-0.1,0-0.2,0-0.3c0-1.5,1.2-2.4,3-2.4
	c0.5,0,1,0.1,1.4,0.2l0.1-0.6c0.3-1.1-0.2-1.6-1.1-1.6c-0.7,0-1.3,0.2-1.9,0.5h-0.4l0.2-1c0.7-0.3,1.5-0.5,2.3-0.5
	c1.7,0,2.7,0.8,2.3,2.8l-1,4.4h-0.4c-0.4,0-0.7-0.2-0.8-0.6C130,74.9,130,74.9,130,74.8z M130.2,73.9l0.3-1.5
	c-0.4-0.1-0.8-0.2-1.2-0.2c-1.2,0-1.8,0.5-1.8,1.5c0,0.5,0.4,1,0.9,1c0.1,0,0.1,0,0.2,0C129.2,74.7,129.8,74.4,130.2,73.9z"/>
<path fill="#231F20" d="M133.5,73.5l0.9-4h-0.8l0.2-1h0.8l0.4-1.9h1.4l-0.4,1.9h1.4l-0.2,1h-1.5l-0.9,4.1c-0.2,0.7,0.1,1.1,0.8,1.1
	h0.5l-0.2,0.8c-0.3,0.1-0.7,0.1-1,0.1C133.7,75.6,133.2,74.9,133.5,73.5z"/>
<path fill="#231F20" d="M139,68.5h0.7c0.5,0,0.7,0.1,0.5,1l-1.4,6h-1.4L139,68.5z M139.3,67c0-0.4,0.4-0.8,0.8-0.8
	c0.4,0,0.8,0.3,0.8,0.7c0,0,0,0,0,0c0,0.4-0.4,0.8-0.8,0.8C139.6,67.8,139.3,67.4,139.3,67C139.3,67,139.3,67,139.3,67L139.3,67z"/>
<path fill="#231F20" d="M141,72.8c0-2.5,1.7-4.3,3.8-4.3c1.5-0.1,2.8,1,2.9,2.5c0,0.1,0,0.3,0,0.4c0,2.5-1.6,4.3-3.8,4.3
	c-1.5,0.1-2.8-0.9-2.9-2.4C141,73.1,141,72.9,141,72.8z M146.4,71.3c0-1.3-0.6-1.9-1.6-1.9c-1.5,0-2.4,1.6-2.4,3.4
	c0,1.3,0.6,1.9,1.6,1.9C145.5,74.6,146.4,73,146.4,71.3L146.4,71.3z"/>
<path fill="#231F20" d="M150,68.5h0.4c0.7,0,0.8,0.4,0.7,1.1c0.8-0.7,1.8-1.1,2.9-1.2c1.1,0,1.7,0.8,1.4,2.2l-1.1,4.9h-0.9
	c-0.4,0-0.5-0.1-0.4-0.7l1-4.2c0.2-0.8-0.1-1.2-0.7-1.2c-0.9,0.1-1.7,0.4-2.4,1l-1.2,5h-1.4L150,68.5z"/>
<path fill="#231F20" d="M161.2,66.2h1.5l-1.9,8.3h4.3l-0.3,1.1h-5.7L161.2,66.2z"/>
<path fill="#231F20" d="M166.1,72.8c0-2.3,1.5-4.4,3.8-4.4c1.2-0.1,2.2,0.7,2.4,1.9c0,0.2,0,0.3,0,0.5c0,0.5-0.1,1-0.2,1.5h-4.6
	c0,0.2,0,0.3,0,0.5c0,1.2,0.5,1.8,1.7,1.8c0.7,0,1.4-0.2,1.9-0.6h0.5l-0.2,1c-0.7,0.4-1.5,0.6-2.3,0.6c-1.4,0.2-2.7-0.9-2.8-2.3
	C166,73.2,166,73,166.1,72.8z M167.6,71.4h3.3c0.1-0.2,0.1-0.5,0.1-0.7c0-0.9-0.5-1.4-1.2-1.4C168.7,69.4,167.9,70.2,167.6,71.4
	L167.6,71.4z"/>
<path fill="#231F20" d="M176.5,74.8c-0.5,0.5-1.2,0.8-1.9,0.8c-0.9,0.1-1.8-0.6-1.9-1.5c0-0.1,0-0.2,0-0.3c0-1.5,1.2-2.4,3-2.4
	c0.5,0,1,0.1,1.4,0.2l0.1-0.6c0.3-1.1-0.2-1.6-1.1-1.6c-0.7,0-1.3,0.2-1.9,0.5h-0.4l0.2-1c0.7-0.3,1.5-0.5,2.3-0.5
	c1.7,0,2.7,0.8,2.3,2.8l-1,4.4h-0.4c-0.4,0-0.7-0.2-0.8-0.6C176.5,74.9,176.5,74.9,176.5,74.8z M176.7,73.9l0.3-1.5
	c-0.4-0.1-0.8-0.2-1.2-0.2c-1.2,0-1.8,0.5-1.8,1.5c0,0.5,0.4,1,0.9,1c0.1,0,0.1,0,0.2,0C175.7,74.7,176.3,74.4,176.7,73.9z"/>
<path fill="#231F20" d="M184.2,74.6c-0.6,0.6-1.4,1-2.3,1.1c-1.2,0-2.2-0.7-2.2-2.5c0-2.5,1.6-4.7,3.9-4.7c0.7-0.1,1.4,0.2,1.8,0.7
	l0.7-3h0.7c0.5,0,0.6,0.1,0.4,0.9l-2,8.5H185C184.3,75.6,184.2,75.1,184.2,74.6z M184.4,73.7l0.8-3.6c-0.3-0.4-0.9-0.6-1.4-0.6
	c-1.7,0-2.7,1.7-2.7,3.6c0,1.1,0.4,1.5,1.2,1.5C183.2,74.6,183.9,74.2,184.4,73.7z"/>
<path fill="#231F20" d="M187.6,72.8c0-2.3,1.5-4.4,3.8-4.4c1.2-0.1,2.2,0.7,2.4,1.9c0,0.2,0,0.3,0,0.5c0,0.5-0.1,1-0.2,1.5h-4.6
	c0,0.2,0,0.3,0,0.5c0,1.2,0.5,1.8,1.7,1.8c0.7,0,1.4-0.2,1.9-0.6h0.5l-0.2,1c-0.7,0.4-1.5,0.6-2.3,0.6c-1.4,0.2-2.7-0.8-2.9-2.3
	C187.6,73.2,187.6,73,187.6,72.8z M189.1,71.4h3.3c0.1-0.2,0.1-0.5,0.1-0.7c0-0.9-0.5-1.4-1.2-1.4C190.2,69.4,189.4,70.2,189.1,71.4
	L189.1,71.4z"/>
<path fill="#231F20" d="M195.8,68.5h0.4c0.7,0,0.8,0.5,0.7,1.2c0.5-0.7,1.3-1.2,2.2-1.2c0.1,0,0.2,0,0.4,0l-0.3,1.2H199
	c-0.9,0-1.7,0.4-2.3,1.1l-1.1,4.8h-1.4L195.8,68.5z"/>
<path fill="#231F20" d="M199,74.9l0.2-1h0.5c0.4,0.5,1,0.7,1.7,0.7c1,0,1.5-0.4,1.5-1.1c0-0.5-0.4-0.7-1.1-1
	c-1.1-0.4-1.8-0.8-1.8-1.9c0-1.4,1-2.2,2.7-2.2c0.8,0,1.5,0.2,2.1,0.6l-0.2,0.9h-0.5c-0.4-0.4-1-0.6-1.5-0.6c-0.9,0-1.4,0.4-1.4,1
	c0,0.6,0.3,0.7,1.2,1c1.1,0.4,1.8,0.7,1.8,1.8c0,1.4-1,2.4-2.8,2.4C200.6,75.7,199.7,75.4,199,74.9z"/>
<path fill="#231F20" d="M207.3,66.2h0.8c0.4,0,0.5,0.1,0.4,0.9l-0.6,2.5c0.8-0.7,1.8-1.1,2.9-1.1c1.1,0,1.7,0.8,1.4,2.2l-1.1,4.9
	h-0.9c-0.4,0-0.5-0.1-0.4-0.7l1-4.2c0.2-0.8-0.1-1.2-0.7-1.2c-0.9,0.1-1.7,0.4-2.4,1l-1.1,5h-1.4L207.3,66.2z"/>
<path fill="#231F20" d="M214.4,68.5h0.7c0.5,0,0.7,0.1,0.5,1l-1.4,6h-1.4L214.4,68.5z M214.6,67c0-0.4,0.4-0.8,0.8-0.8
	c0.4,0,0.7,0.4,0.7,0.8c0,0,0,0,0,0c0,0.4-0.4,0.8-0.8,0.8C215,67.8,214.6,67.4,214.6,67C214.6,67,214.6,67,214.6,67L214.6,67z"/>
<path fill="#231F20" d="M217.7,68.5h0.4c0.6,0,0.8,0.4,0.7,1c0.6-0.7,1.5-1.1,2.4-1.1c1.1,0,2,0.7,2,2.5c0,2.7-1.5,4.6-3.7,4.6
	c-0.7,0-1.4-0.2-1.9-0.7l-0.7,2.9h-1.4L217.7,68.5z M218.6,70.5l-0.8,3.5c0.4,0.4,0.9,0.6,1.5,0.6c1.7,0,2.6-1.6,2.6-3.6
	c0-1.1-0.5-1.5-1.2-1.5C219.9,69.6,219.2,69.9,218.6,70.5L218.6,70.5z"/>
</svg>
